<svg width="20" height="20" viewBox="0 0 20 20" fill="none" xmlns="http://www.w3.org/2000/svg">
<path d="M15.7688 4.64063C16.1219 4.21563 16.0656 3.58438 15.6406 3.23126C15.2156 2.87813 14.5844 2.93438 14.2313 3.35938L10 8.43751L5.76877 3.35938C5.41565 2.93438 4.7844 2.87813 4.3594 3.23126C3.9344 3.58438 3.87815 4.21563 4.23127 4.64063L8.6969 10L4.23127 15.3594C3.87815 15.7844 3.9344 16.4156 4.3594 16.7688C4.7844 17.1219 5.41565 17.0656 5.76877 16.6406L10 11.5625L14.2313 16.6406C14.5844 17.0656 15.2156 17.1219 15.6406 16.7688C16.0656 16.4156 16.1219 15.7844 15.7688 15.3594L11.3031 10L15.7688 4.64063Z" fill="#333333"/>
</svg>
